<?xml version="1.0" encoding="UTF-8"?>
<svg width="107.13mm" height="270.68mm" version="1.1" viewBox="0 0 107.13 270.68" xmlns="http://www.w3.org/2000/svg"
    xmlns:cc="http://creativecommons.org/ns#" xmlns:dc="http://purl.org/dc/elements/1.1/"
    xmlns:rdf="http://www.w3.org/1999/02/22-rdf-syntax-ns#" xmlns:xlink="http://www.w3.org/1999/xlink">
    <defs>
        <linearGradient id="a">
            <stop offset="0" />
            <stop stop-opacity="0" offset="1" />
        </linearGradient>
        <radialGradient id="e" cx="129.28" cy="55.566" r="41.243" gradientTransform="matrix(1 0 0 1.0602 0 -3.3449)"
            gradientUnits="userSpaceOnUse" xlink:href="#a" />
        <radialGradient id="d" cx="129.28" cy="55.606" r="41.32" gradientTransform="matrix(1 0 0 1.0596 0 -3.3133)"
            gradientUnits="userSpaceOnUse" xlink:href="#a" />
        <radialGradient id="c" cx="129.28" cy="55.585" r="41.28" gradientTransform="matrix(1 0 0 1.0599 0 -3.33)"
            gradientUnits="userSpaceOnUse" xlink:href="#a" />
        <radialGradient id="b" cx="129.28" cy="55.575" r="41.261" gradientTransform="matrix(1 0 0 1.0601 0 -3.3375)"
            gradientUnits="userSpaceOnUse" xlink:href="#a" />
        <clipPath id="f">
            <rect x="207.93" y="-137.93" width="107.13" height="321.38" fill="none" stroke="#F00" stroke-linecap="round"
                stroke-linejoin="round" stroke-opacity=".96774" stroke-width=".3"
                style="paint-order:markers fill stroke" />
        </clipPath>
    </defs>
    <g transform="translate(-260.82 97.146)">
        <g transform="translate(52.891 7.1716)" clip-path="url(#f)" stroke="#000" stroke-width=".53237">
            <g transform="matrix(1.8784 0 0 1.8784 -26.606 -232.19)">
                <g transform="matrix(1.6483 0 0 -1.6482 -99.291 231.68)" fill="url(#e)" stroke-width=".085456px">
                    <path d="m130.17 99.221-31.237-17.17 17.263 8.6427z" />
                    <path d="m130.17 99.221 40.302-34.905-22.272 17.57z" />
                    <path d="m130.17 99.221 31.05-57.405-17.159 28.895z" />
                    <path d="m130.17 99.221-11.828-87.37 6.5368 43.978z" />
                    <path d="m130.17 99.221 13.338-82.816-7.371 41.686z" />
                    <path d="m130.17 99.221-35.467-81.758 19.6 41.153z" />
                    <path d="m130.18 99.213-42.076-46.817 23.252 23.566z" />
                </g>
                <g transform="matrix(.69496 0 0 -.69499 50.515 137.14)" fill="url(#d)" stroke-width=".20268px">
                    <path d="m130.17 99.221-31.237-17.17 17.263 8.6427z" />
                    <path d="m130.17 99.221 40.302-34.905-22.272 17.57z" />
                    <path d="m130.17 99.221 31.05-57.405-17.159 28.895z" />
                    <path d="m130.17 99.221-11.828-87.37 6.5368 43.978z" />
                    <path d="m130.17 99.221 13.338-82.816-7.371 41.686z" />
                    <path d="m130.17 99.221-35.467-81.758 19.6 41.153z" />
                    <path d="m130.18 99.213-42.076-46.817 23.252 23.566z" />
                </g>
                <g transform="matrix(1 0 0 -1 -29.842 167.37)" fill="url(#c)" stroke-width=".14086px">
                    <path d="m130.17 99.221-31.237-17.17 17.263 8.6427z" />
                    <path d="m130.17 99.221 40.302-34.905-22.272 17.57z" />
                    <path d="m130.17 99.221 31.05-57.405-17.159 28.895z" />
                    <path d="m130.17 99.221-11.828-87.37 6.5368 43.978z" />
                    <path d="m130.17 99.221 13.338-82.816-7.371 41.686z" />
                    <path d="m130.17 99.221-35.467-81.758 19.6 41.153z" />
                    <path d="m130.18 99.213-42.076-46.817 23.252 23.566z" />
                </g>
                <g transform="matrix(1.2484 0 0 -1.2484 -37.657 192.15)" fill="url(#b)" stroke-width=".11283px">
                    <path d="m130.17 99.221-31.237-17.17 17.263 8.6427z" />
                    <path d="m130.17 99.221 40.302-34.905-22.272 17.57z" />
                    <path d="m130.17 99.221 31.05-57.405-17.159 28.895z" />
                    <path d="m130.17 99.221-11.828-87.37 6.5368 43.978z" />
                    <path d="m130.17 99.221 13.338-82.816-7.371 41.686z" />
                    <path d="m130.17 99.221-35.467-81.758 19.6 41.153z" />
                    <path d="m130.18 99.213-42.076-46.817 23.252 23.566z" />
                </g>
            </g>
            <g transform="matrix(1.8784 0 0 1.8784 80.648 -232.14)">
                <g transform="matrix(1.6483 0 0 -1.6482 -99.291 231.68)" fill="url(#e)" stroke-width=".085456px">
                    <path d="m130.17 99.221-31.237-17.17 17.263 8.6427z" />
                    <path d="m130.17 99.221 40.302-34.905-22.272 17.57z" />
                    <path d="m130.17 99.221 31.05-57.405-17.159 28.895z" />
                    <path d="m130.17 99.221-11.828-87.37 6.5368 43.978z" />
                    <path d="m130.17 99.221 13.338-82.816-7.371 41.686z" />
                    <path d="m130.17 99.221-35.467-81.758 19.6 41.153z" />
                    <path d="m130.18 99.213-42.076-46.817 23.252 23.566z" />
                </g>
                <g transform="matrix(.69496 0 0 -.69499 50.515 137.14)" fill="url(#d)" stroke-width=".20268px">
                    <path d="m130.17 99.221-31.237-17.17 17.263 8.6427z" />
                    <path d="m130.17 99.221 40.302-34.905-22.272 17.57z" />
                    <path d="m130.17 99.221 31.05-57.405-17.159 28.895z" />
                    <path d="m130.17 99.221-11.828-87.37 6.5368 43.978z" />
                    <path d="m130.17 99.221 13.338-82.816-7.371 41.686z" />
                    <path d="m130.17 99.221-35.467-81.758 19.6 41.153z" />
                    <path d="m130.18 99.213-42.076-46.817 23.252 23.566z" />
                </g>
                <g transform="matrix(1 0 0 -1 -29.842 167.37)" fill="url(#c)" stroke-width=".14086px">
                    <path d="m130.17 99.221-31.237-17.17 17.263 8.6427z" />
                    <path d="m130.17 99.221 40.302-34.905-22.272 17.57z" />
                    <path d="m130.17 99.221 31.05-57.405-17.159 28.895z" />
                    <path d="m130.17 99.221-11.828-87.37 6.5368 43.978z" />
                    <path d="m130.17 99.221 13.338-82.816-7.371 41.686z" />
                    <path d="m130.17 99.221-35.467-81.758 19.6 41.153z" />
                    <path d="m130.18 99.213-42.076-46.817 23.252 23.566z" />
                </g>
                <g transform="matrix(1.2484 0 0 -1.2484 -37.657 192.15)" fill="url(#b)" stroke-width=".11283px">
                    <path d="m130.17 99.221-31.237-17.17 17.263 8.6427z" />
                    <path d="m130.17 99.221 40.302-34.905-22.272 17.57z" />
                    <path d="m130.17 99.221 31.05-57.405-17.159 28.895z" />
                    <path d="m130.17 99.221-11.828-87.37 6.5368 43.978z" />
                    <path d="m130.17 99.221 13.338-82.816-7.371 41.686z" />
                    <path d="m130.17 99.221-35.467-81.758 19.6 41.153z" />
                    <path d="m130.18 99.213-42.076-46.817 23.252 23.566z" />
                </g>
            </g>
        </g>
    </g>
</svg>