<?xml version="1.0" encoding="UTF-8"?>
<svg width="193.36mm" height="17.3mm" version="1.1" viewBox="0 0 193.36 17.3" xmlns="http://www.w3.org/2000/svg" xmlns:cc="http://creativecommons.org/ns#" xmlns:dc="http://purl.org/dc/elements/1.1/" xmlns:osb="http://www.openswatchbook.org/uri/2009/osb" xmlns:rdf="http://www.w3.org/1999/02/22-rdf-syntax-ns#">
<g transform="translate(-44.024 -15.611)" fill="none" stroke="#000">
<path d="m71.815 32.364c-1.5033-4.865-5.1317-8.8402-9.4508-11.424-5.4927-3.2852-11.962-4.7968-18.33-4.8294"/>
<path d="m71.815 32.364c1.2546-3.4235 4.6202-5.4293 7.7545-6.891 7.6932-3.5879 16.055-5.4806 24.383-6.8708 7.6188-1.2717 15.316-2.2893 23.047-2.4445"/>
<path d="m99.219 32.41c-1.2133-3.3617-4.5166-5.3712-7.5734-6.8152-7.6493-3.6134-15.966-5.537-24.261-6.9539-7.7164-1.3181-15.515-2.367-23.35-2.5304"/>
<path d="m99.219 32.41c1.5034-4.865 5.1317-8.8402 9.4508-11.424 5.4927-3.2852 11.962-4.7968 18.33-4.8294"/>
<path d="m85.234 32.41c-1.3132-3.899-4.7829-6.5348-8.2606-8.4111-6.5083-3.5115-13.743-5.4693-20.994-6.699-3.9461-0.66923-7.9375-1.1612-11.945-1.1894"/>
<path d="m85.234 32.41c1.3054-3.8654 4.7643-6.4626 8.2164-8.3113 6.5483-3.5068 13.819-5.4536 21.101-6.6927 4.1126-0.69976 8.2722-1.2169 12.449-1.2489"/>
<path d="m182.18 32.364c-1.5034-4.865-5.1317-8.8402-9.4508-11.424-5.4927-3.2852-11.962-4.7968-18.33-4.8294"/>
<path d="m182.18 32.364c1.2546-3.4235 4.6202-5.4293 7.7545-6.891 7.6932-3.5879 16.055-5.4806 24.383-6.8708 7.6188-1.2717 15.316-2.2893 23.047-2.4445"/>
<path d="m209.59 32.41c-1.2133-3.3617-4.5166-5.3712-7.5734-6.8152-7.6493-3.6134-15.966-5.537-24.261-6.9539-7.7164-1.3181-15.515-2.367-23.35-2.5304"/>
<path d="m209.59 32.41c1.5034-4.865 5.1317-8.8402 9.4508-11.424 5.4927-3.2852 11.962-4.7968 18.33-4.8294"/>
<path d="m195.6 32.41c-1.3132-3.899-4.7829-6.5348-8.2606-8.4111-6.5083-3.5115-13.743-5.4693-20.994-6.699-3.9461-0.66923-7.9375-1.1612-11.945-1.1894"/>
<path d="m195.6 32.41c1.3054-3.8654 4.7643-6.4626 8.2164-8.3113 6.5483-3.5068 13.819-5.4536 21.101-6.6927 4.1126-0.69976 8.2722-1.2169 12.449-1.2489"/>
<path d="m182.18 32.364c-1.5034-4.865-5.1317-8.8402-9.4508-11.424-5.4927-3.2852-11.962-4.7968-18.33-4.8294"/>
<path d="m182.18 32.364c1.2546-3.4235 4.6202-5.4293 7.7545-6.891 7.6932-3.5879 16.055-5.4806 24.383-6.8708 7.6188-1.2717 15.316-2.2893 23.047-2.4445"/>
<path d="m209.59 32.41c-1.2133-3.3617-4.5166-5.3712-7.5734-6.8152-7.6493-3.6134-15.966-5.537-24.261-6.9539-7.7164-1.3181-15.515-2.367-23.35-2.5304"/>
<path d="m209.59 32.41c1.5034-4.865 5.1317-8.8402 9.4508-11.424 5.4927-3.2852 11.962-4.7968 18.33-4.8294"/>
<path d="m195.6 32.41c-1.3132-3.899-4.7829-6.5348-8.2606-8.4111-6.5083-3.5115-13.743-5.4693-20.994-6.699-3.9461-0.66923-7.9375-1.1612-11.945-1.1894"/>
<path d="m195.6 32.41c1.3054-3.8654 4.7643-6.4626 8.2164-8.3113 6.5483-3.5068 13.819-5.4536 21.101-6.6927 4.1126-0.69976 8.2722-1.2169 12.449-1.2489"/>
<path d="m127 16.157c-1.5034 4.865-5.1317 8.8402-9.4508 11.424-5.4927 3.2852-11.962 4.7968-18.33 4.8294"/>
<path d="m127 16.157c1.2546 3.4235 4.6202 5.4293 7.7545 6.891 7.6932 3.5879 16.055 5.4806 24.383 6.8708 7.6188 1.2717 15.316 2.2893 23.047 2.4445"/>
<path d="m154.4 16.111c-1.2133 3.3617-4.5166 5.3712-7.5734 6.8152-7.6494 3.6134-15.966 5.537-24.261 6.9539-7.7164 1.3181-15.515 2.367-23.35 2.5304"/>
<path d="m154.4 16.111c1.5034 4.865 5.1317 8.8402 9.4508 11.424 5.4927 3.2852 11.962 4.7968 18.33 4.8294"/>
<path d="m140.42 16.111c-1.3132 3.899-4.7829 6.5348-8.2606 8.4111-6.5083 3.5115-13.743 5.4693-20.994 6.699-3.9461 0.66923-7.9375 1.1612-11.945 1.1894"/>
<path d="m140.42 16.111c1.3054 3.8654 4.7643 6.4626 8.2164 8.3113 6.5483 3.5068 13.819 5.4536 21.101 6.6927 4.1126 0.69976 8.2722 1.2169 12.449 1.2489"/>
</g>
</svg>